<svg width="58" height="56" viewBox="0 0 58 56" fill="none" xmlns="http://www.w3.org/2000/svg">
<rect x="0.5" width="57" height="56" rx="28" fill="#D93E3E"/>
<path d="M37.9685 28.0059V23.9846C37.9685 21.0627 36.149 19 33.2252 19H24.8605C21.9454 19 20.1172 21.0627 20.1172 23.9846V31.8657C20.1172 34.7866 21.9367 36.8503 24.8605 36.8503H26.5963" stroke="white" stroke-width="1.5" stroke-linecap="round" stroke-linejoin="round"/>
<path d="M36.4303 30.8654C37.0686 31.5164 37.4617 32.4076 37.4617 33.3913C37.4617 35.3849 35.8465 37.0001 33.8529 37.0001C32.8439 37.0001 31.9313 36.5856 31.2764 35.9172" stroke="white" stroke-width="1.5" stroke-linecap="round" stroke-linejoin="round"/>
<path d="M36.4299 30.8654C35.7751 30.197 34.8629 29.7827 33.8529 29.7827C31.8603 29.7827 30.2441 31.3988 30.2441 33.3915C30.2441 34.3752 30.6378 35.2662 31.276 35.9172" stroke="white" stroke-width="1.5" stroke-linecap="round" stroke-linejoin="round"/>
<path opacity="0.4" d="M36.4293 30.8652L31.2754 35.917" stroke="white" stroke-width="1.5" stroke-linecap="round" stroke-linejoin="round"/>
<path opacity="0.4" d="M23.4344 22.5205H23.3789M25.8991 22.5205H25.8437M28.3639 22.5205H28.3084" stroke="white" stroke-width="1.5" stroke-linecap="round" stroke-linejoin="round"/>
<path opacity="0.4" d="M37.9685 25.438H20.1172" stroke="white" stroke-width="1.5" stroke-linecap="round" stroke-linejoin="round"/>
</svg>
